<svg width="24" height="24" fill="currentColor" xmlns="http://www.w3.org/2000/svg">
    <path fill-rule="evenodd" clip-rule="evenodd"
        d="M15.382 10.79A5.078 5.078 0 0 0 17 7.063C17 4.266 14.761 2 12 2S7 4.266 7 7.062c0 1.475.623 2.803 1.618 3.728C5.323 12.197 3 15.593 3 19.56c0 .58.05 1.148.145 1.699a.894.894 0 0 0 .726.725c.72.133 1.31-.595 1.206-1.328A7.79 7.79 0 0 1 5 19.561c0-4.064 3.134-7.359 7-7.359s7 3.295 7 7.359c0 .372-.026.738-.077 1.095-.104.734.486 1.46 1.206 1.328a.894.894 0 0 0 .726-.725c.095-.551.145-1.119.145-1.698 0-3.968-2.323-7.365-5.618-8.77zM15 7.063c0 1.678-1.343 3.038-3 3.038S9 8.74 9 7.062c0-1.677 1.343-3.037 3-3.037s3 1.36 3 3.037z" />
</svg>