<svg width="284" height="32" fill="currentColor" xmlns="http://www.w3.org/2000/svg">
    <path fill-rule="evenodd" clip-rule="evenodd"
        d="M96.996 30.188c-.469.105-3.578.796-5.903 1.137-.637.094-4.097.603-8.033.603-3.737 0-6.525-.785-7.072-.939-3.211-.91-5.062-2.604-5.422-2.933-.358-.334-2.186-2.043-3.19-5.138-1.004-3.095-.515-6.703-.437-7.282.554-4.085 1.953-6.523 2.25-7.04 1.716-2.953 3.925-4.546 4.352-4.854.434-.313 2.66-1.921 6.118-2.832.588-.153 3.479-.91 7.556-.91 2.507 0 4.115.199 4.47.243 1.985.243 3.269.541 3.55.607 1.564.364 2.52.745 2.733.829l2.112.87-1.26 9.305h-6.393c-.886-1.456-1.916-2.026-2.131-2.145-1.223-.687-2.407-.687-2.625-.687-.194 0-1.19 0-2.375.445-.189.072-1.165.445-2.15 1.294-.165.141-.987.85-1.684 2.084-.118.205-.696 1.214-.91 2.791-.041.306-.352 2.602-.055 3.857.297 1.254.948 1.928 1.08 2.063.132.133.804.81 2.047 1.194.227.068 1.265.384 2.942.384.501 0 3.214 0 6.246-.507 3.578-.599 5.656-1.063 6.143-1.173v.005l2.632-.537L110.856 0h18.028l3.334 18.982c3.692.431 6.251 1.122 6.783 1.266l1.445-10.665-2.718-.562L138.95 0h16.74l5.367 12.264L169.681 0h16.657l-1.222 9.021-2.87.562-1.718 12.68 2.707.644-1.222 9.021h-16.658l2.109-15.569-8.517 11.474-5.473-11.474-2.109 15.57h-30.08l-.395-4.688c-.747-.097-3.892-.506-9.421.011l-1.643 4.676H97.408l.255-1.888-.665.148h-.002zm22.855-11.559L118.868 7.4a53314.74 53314.74 0 0 0-4.156 11.592l5.139-.363zM187.468 0h19.348l-1.223 9.021-2.87.562-1.717 12.68 2.706.644-1.222 9.021h-19.347l1.222-9.021 2.881-.644 1.718-12.68-2.718-.562L187.468 0zM216 22.263l2.709.623-1.224 9.042h-13.864l1.222-9.021 2.881-.644 1.717-12.68-2.717-.562L207.946 0h16.657l8.959 16.36.918-6.777-2.718-.562L232.984 0h13.968l-1.222 9.021-2.87.562-1.717 12.68 2.706.644-1.222 9.021h-16.783L216.8 16.36l-.8 5.904zm41.59 9.333c-2.358-.303-4.037-.996-4.37-1.133a14.334 14.334 0 0 1-3.557-2.124c-.25-.21-1.563-1.314-2.57-3.135-.17-.313-1.003-1.84-1.384-4.207-.063-.425-.356-2.389.047-5.36.378-2.79 1.194-4.653 1.362-5.037.984-2.245 2.208-3.697 2.451-3.986 1.468-1.74 3.056-2.793 3.358-2.993.306-.201 1.911-1.254 4.121-2.043.364-.132 2.234-.81 4.707-1.194A34.523 34.523 0 0 1 266.883 0c2.633 0 4.626.32 5.024.384 2.391.385 4.067 1.058 4.404 1.194 2.015.809 3.311 1.857 3.565 2.063a10.803 10.803 0 0 1 2.568 2.994c.169.294.996 1.74 1.372 3.985.067.396.378 2.225 0 5.016-.592 4.37-2.19 6.961-2.525 7.505-1.909 3.115-4.305 4.776-4.768 5.097-.459.318-2.859 1.983-6.437 2.832-.589.137-3.699.858-7.528.858-.399 0-2.361 0-4.968-.332zm5.7-22.008c-.957.324-1.531.778-1.647.87a4.807 4.807 0 0 0-1.08 1.234l-.678 1.395-.356 1.376-.18 1.173-.138 1.173-.019 1.396.296 1.416c.036.112.223.708.741 1.275.093.093.542.546 1.409.89.169.065.888.343 2.247.343s2.143-.28 2.319-.344c.981-.343 1.554-.796 1.671-.89.693-.566 1.039-1.158 1.107-1.274.437-.71.64-1.298.681-1.416l.359-1.396.201-1.173.117-1.173.016-1.376c-.009-.113-.052-.706-.3-1.395a3.179 3.179 0 0 0-.767-1.234c-.093-.094-.542-.546-1.433-.87-.166-.066-.866-.344-2.226-.344-1.359 0-2.162.282-2.34.344zM17.587 25.71c5.24 0 8.406-1.674 9.146-2.81h3.642l-1.221 9.013H0L1.22 22.9l2.862-.519L5.815 9.588l-2.72-.519L4.32.015h29.154l-1.22 9.013h-3.512c-.523-.864-3.561-2.81-8.515-2.81l-1.008 7.44 6.724-1.349-.996 7.352-6.358-1.35-1.003 7.4zm30.585-1.772c2.839 0 5.742-1.576 6.574-2.658h3.642l-1.44 10.633H30.344l1.22-9.013 2.862-.52L36.16 9.588l-2.715-.56L34.666.015h19.538l-1.221 9.013-2.867.56-1.944 14.351z"
    />
</svg>