<svg width="100%" height="100%" viewBox="0 0 649 150" version="1.1" xmlns="http://www.w3.org/2000/svg">
    <path
        d="M392.1,149.725L391.468,149.727C374.775,149.727 362.335,146.047 359.889,145.323C345.557,141.055 337.304,133.112 335.7,131.569C334.104,130 325.953,121.988 321.497,107.475C317.043,92.957 319.258,76.039 319.613,73.326C322.121,54.169 328.392,42.736 329.721,40.315C337.416,26.464 347.295,18.995 349.207,17.549C351.146,16.08 361.103,8.538 376.556,4.269C379.181,3.548 392.101,0 410.312,0C421.506,0 428.686,0.932 430.272,1.138C439.135,2.277 444.867,3.678 446.119,3.984C453.107,5.692 457.375,7.478 458.32,7.873L467.746,11.952C465.842,26.497 463.937,41.042 462.033,55.587L433.482,55.587C429.541,48.759 424.942,46.088 423.985,45.532C418.527,42.307 413.239,42.307 412.267,42.307C411.401,42.307 406.955,42.307 401.655,44.394C400.811,44.732 396.447,46.481 392.038,50.465C391.306,51.127 387.626,54.451 384.499,60.235C383.972,61.197 381.381,65.929 380.413,73.326C380.225,74.761 378.815,85.528 380.132,91.412C381.448,97.291 384.351,100.451 384.936,101.087C385.524,101.711 388.518,104.882 394.069,106.684L400.671,108.101L411.046,108.401C412.593,108.342 421.024,108.019 430.34,106.82C467.807,100.126 475.131,68.264 482.394,51.958L483.296,49.706C487.708,39.179 493.192,32.369 494.28,31.019L494.308,30.985C501.154,22.027 512.009,13.234 526.526,7.859L527.727,7.399C529.355,6.78 537.713,3.604 548.76,1.802C550.575,1.509 559.904,0 571.667,0L571.761,0C583.47,0.007 592.334,1.504 594.102,1.802C604.776,3.605 612.256,6.763 613.763,7.399C622.753,11.193 628.531,16.11 629.666,17.075C630.776,18.006 636.675,22.956 641.109,31.114C641.86,32.495 645.543,39.274 647.201,49.801C647.498,51.659 648.869,60.235 647.155,73.326C644.472,93.815 637.314,105.969 635.813,108.518C627.259,123.127 616.543,130.915 614.47,132.422C612.419,133.913 601.682,141.718 585.697,145.703C583.064,146.344 569.169,149.727 552.065,149.727C550.286,149.727 541.523,149.727 529.882,148.169C519.35,146.746 511.857,143.5 510.372,142.857C501.491,138.968 495.638,133.88 494.507,132.897L488.966,127.148C461.4,144.146 423.562,147.579 415.157,148.364C413.325,148.54 401.67,149.661 392.189,149.725L392.101,149.727L392.101,149.725L392.1,149.725ZM555.535,44.963C551.256,46.481 548.69,48.612 548.171,49.042C545.179,51.604 543.634,54.304 543.334,54.828L540.297,61.373L538.693,67.824L537.878,73.326L537.252,78.827L537.154,85.373L538.465,92.013C538.621,92.536 539.453,95.331 541.763,97.989C542.177,98.428 544.177,100.549 548.046,102.162C548.799,102.469 552.008,103.775 558.08,103.775C564.149,103.775 567.655,102.458 568.44,102.162C572.823,100.551 575.385,98.426 575.912,97.989C579.01,95.333 580.564,92.555 580.868,92.013C582.824,88.686 583.736,85.928 583.919,85.373L585.535,78.827L586.445,73.326L586.976,67.824L587.061,61.373C587.025,60.84 586.833,58.06 585.736,54.828C585.577,54.315 584.735,51.603 582.321,49.042C581.904,48.601 579.903,46.48 575.929,44.963C575.185,44.653 572.061,43.35 565.991,43.35C559.919,43.35 556.329,44.671 555.535,44.963ZM228.255,113.11C239.445,113.269 269.106,113.613 280.186,99.818L296.6,99.818C294.422,116.455 292.244,133.091 290.066,149.727L140.176,149.727C142.022,135.625 143.868,121.524 145.715,107.422L158.511,104.985C161.132,84.969 163.752,64.953 166.373,44.938L154.24,42.306C156.086,28.204 157.933,14.102 159.779,0L255.543,0C253.697,14.102 251.85,28.204 250.004,42.306L237.181,44.938C234.206,67.662 231.231,90.386 228.255,113.11ZM78.675,120.614C102.093,120.614 116.265,112.759 119.589,107.422L135.868,107.422C134.022,121.524 132.175,135.626 130.329,149.727L0,149.727C1.846,135.625 3.693,121.524 5.539,107.422L18.335,104.985C20.956,84.969 23.577,64.953 26.197,44.938L14.039,42.501C15.894,28.334 17.749,14.167 19.604,0L149.933,0C148.086,14.102 146.24,28.204 144.393,42.306L128.699,42.306C126.367,38.253 112.804,29.114 90.655,29.114C89.131,40.757 87.606,52.4 86.082,64.044C96.106,61.932 106.131,59.819 116.155,57.707C114.649,69.21 113.143,80.712 111.637,92.215C102.166,90.103 92.695,87.991 83.223,85.879C81.707,97.457 80.191,109.035 78.675,120.614Z" />
</svg>