<svg xmlns="http://www.w3.org/2000/svg" width="180" height="180" fill="none"><g clip-path="url(#a)"><path fill="#FBFAF8" d="M157.5 0h-135C10.074 0 0 10.074 0 22.5v135C0 169.926 10.074 180 22.5 180h135c12.426 0 22.5-10.074 22.5-22.5v-135C180 10.074 169.926 0 157.5 0Z"/><path fill="#59564F" fill-rule="evenodd" d="M133.416 159.157c.327 0 .608.057.841.172.234.105.416.281.547.528.13.238.196.567.196.986v3.429c0 .523-.056.947-.168 1.271-.112.314-.285.543-.519.686-.233.133-.532.2-.897.2-.327 0-.588-.058-.785-.172a1.383 1.383 0 0 1-.42-.414V168h-1.597v-8.728h1.583v.557c.094-.162.225-.315.393-.458.168-.142.443-.214.826-.214Zm-.602 1.014a.642.642 0 0 0-.322.072.455.455 0 0 0-.183.171.85.85 0 0 0-.084.229 2.233 2.233 0 0 0-.014.228v3.843c0 .162.014.305.042.429a.556.556 0 0 0 .182.285c.084.058.211.086.379.086.14 0 .247-.019.322-.057a.452.452 0 0 0 .168-.185.592.592 0 0 0 .084-.258c.01-.104.014-.219.014-.342v-3.658c0-.123-.004-.238-.014-.342a.61.61 0 0 0-.084-.272.367.367 0 0 0-.168-.171.726.726 0 0 0-.322-.058Z" clip-rule="evenodd"/><path fill="#59564F" d="M57.918 157.771c.467.001.869.058 1.205.172.346.114.612.309.799.586.187.276.28.662.28 1.157v1.743h-1.625v-1.815c0-.228-.029-.4-.084-.514a.428.428 0 0 0-.239-.243.892.892 0 0 0-.336-.057c-.13 0-.248.019-.35.057a.429.429 0 0 0-.239.243c-.056.114-.084.286-.084.514v5.115c0 .219.028.39.084.514a.5.5 0 0 0 .239.243c.102.038.22.057.35.057.13 0 .243-.019.336-.057a.5.5 0 0 0 .239-.243c.055-.124.084-.295.084-.514v-1.672h1.625v1.043c0 .695-.093 1.219-.28 1.572-.187.342-.453.566-.799.671-.336.114-.743.172-1.219.172-.458 0-.864-.058-1.22-.172-.345-.105-.62-.329-.826-.671-.196-.353-.294-.872-.294-1.558v-4.428c0-.505.098-.895.294-1.172a1.57 1.57 0 0 1 .84-.571 3.986 3.986 0 0 1 1.22-.172Z"/><path fill="#59564F" fill-rule="evenodd" d="M84.502 159.143c.739 0 1.285.148 1.64.443.365.286.547.795.547 1.528v3c0 .657-.084 1.153-.252 1.486a1.298 1.298 0 0 1-.73.686c-.326.114-.728.171-1.204.171-.468 0-.87-.057-1.206-.171a1.293 1.293 0 0 1-.742-.672c-.168-.342-.252-.843-.252-1.5v-3c0-.733.182-1.242.546-1.528.364-.295.915-.443 1.653-.443Zm0 .971c-.205 0-.359.062-.462.186-.093.124-.14.338-.14.643v3.714c0 .315.047.534.14.657.103.115.257.172.462.172.206 0 .356-.057.449-.172.093-.123.14-.342.14-.657v-3.714c0-.295-.047-.505-.14-.629-.084-.133-.234-.2-.448-.2ZM111.859 159.143c.729 0 1.276.128 1.64.386.364.257.546.733.546 1.428v1.929h-2.788v1.928c0 .286.042.486.126.6.093.114.257.172.49.172.215 0 .36-.053.435-.158.084-.114.126-.319.126-.614v-1.128h1.611v.443c0 .666-.084 1.166-.252 1.5a1.291 1.291 0 0 1-.743.671c-.317.105-.705.157-1.163.157-.486 0-.897-.052-1.233-.157a1.3 1.3 0 0 1-.743-.657c-.168-.333-.252-.833-.252-1.5v-3.186c0-.695.182-1.171.547-1.428.364-.258.915-.386 1.653-.386Zm0 .971c-.224 0-.383.058-.476.172-.084.114-.126.309-.126.585v1.272h1.177v-1.272c0-.276-.042-.471-.126-.585-.075-.114-.225-.172-.449-.172ZM127.501 159.143c.738 0 1.285.148 1.64.443.364.286.546.795.546 1.528v3c0 .657-.084 1.153-.252 1.486a1.3 1.3 0 0 1-.728.686c-.327.114-.729.171-1.206.171-.467 0-.868-.057-1.205-.171a1.296 1.296 0 0 1-.743-.672c-.168-.342-.252-.843-.252-1.5v-3c0-.733.182-1.242.547-1.528.364-.295.915-.443 1.653-.443Zm0 .971c-.205 0-.359.062-.462.186-.093.124-.14.338-.14.643v3.714c0 .315.047.534.14.657.103.115.257.172.462.172.206 0 .355-.057.449-.172.093-.123.14-.342.14-.657v-3.714c0-.295-.047-.505-.14-.629-.084-.133-.234-.2-.449-.2ZM63.193 159.129c.589 0 1.042.057 1.36.171.318.105.537.276.659.514.121.229.182.543.182.943v5.586h-1.598v-.786a1.081 1.081 0 0 1-.518.657 1.617 1.617 0 0 1-.87.243c-.242 0-.471-.033-.686-.1a.99.99 0 0 1-.519-.414c-.13-.219-.196-.538-.196-.957v-.943c0-.448.127-.81.379-1.086.261-.286.668-.529 1.219-.729.29-.123.518-.233.687-.328a.924.924 0 0 0 .364-.343c.075-.143.112-.333.112-.571v-.386c0-.152-.023-.267-.07-.343a.41.41 0 0 0-.21-.186.71.71 0 0 0-.295-.057c-.242 0-.401.086-.476.258-.075.161-.112.437-.112.828v.6H61.16v-.757c0-.352.047-.662.14-.929.103-.276.3-.49.59-.643.289-.162.723-.242 1.302-.242Zm.575 3.328a.754.754 0 0 1-.28.257c-.13.067-.262.143-.392.229a1.613 1.613 0 0 0-.407.386c-.093.123-.14.3-.14.528v.729c0 .2.023.362.07.485a.464.464 0 0 0 .196.243.555.555 0 0 0 .28.072c.253 0 .425-.096.519-.286.103-.2.154-.476.154-.828v-1.815ZM102.771 159.129c.588 0 1.042.057 1.359.171.318.105.538.276.659.514.121.229.182.543.182.943v5.586h-1.597v-.786a1.082 1.082 0 0 1-.519.657 1.618 1.618 0 0 1-.869.243c-.243 0-.472-.033-.686-.1a.988.988 0 0 1-.519-.414c-.131-.219-.196-.538-.196-.957v-.943c0-.448.126-.81.378-1.086.262-.286.668-.529 1.219-.729a6.98 6.98 0 0 0 .687-.328.919.919 0 0 0 .364-.343c.075-.143.113-.333.113-.571v-.386c0-.152-.024-.267-.071-.343a.404.404 0 0 0-.21-.186.707.707 0 0 0-.294-.057c-.243 0-.402.086-.476.258-.075.161-.113.437-.113.828v.6h-1.443v-.757c0-.352.047-.662.14-.929.103-.276.299-.49.589-.643.289-.162.724-.242 1.303-.242Zm.575 3.328a.755.755 0 0 1-.281.257c-.13.067-.261.143-.392.229a1.616 1.616 0 0 0-.407.386c-.093.123-.14.3-.14.528v.729c0 .2.024.362.07.485a.466.466 0 0 0 .196.243.557.557 0 0 0 .281.072c.252 0 .425-.096.518-.286.103-.2.155-.476.155-.828v-1.815Z" clip-rule="evenodd"/><path fill="#59564F" d="M92.156 157.886c.747 0 1.317.166 1.71.5.4.323.602.814.602 1.471v1.014h-1.626v-.514c0-.428-.051-.728-.154-.9-.094-.171-.266-.257-.518-.257-.243 0-.416.076-.52.229-.102.152-.153.4-.153.742 0 .315.06.562.182.743.13.172.294.305.49.4.197.086.407.172.631.257a5.58 5.58 0 0 1 1.01.501c.26.161.452.39.574.685.121.286.182.7.182 1.243 0 .609-.103 1.095-.308 1.457a1.676 1.676 0 0 1-.855.757c-.365.153-.794.229-1.29.229-.495 0-.92-.072-1.275-.214a1.557 1.557 0 0 1-.798-.758c-.187-.361-.28-.871-.28-1.528v-.5h1.695v.643c0 .352.028.624.084.814.056.181.135.31.238.386a.66.66 0 0 0 .364.1.61.61 0 0 0 .505-.229c.13-.162.196-.471.196-.928 0-.353-.056-.615-.168-.786-.103-.181-.27-.324-.504-.429a28.669 28.669 0 0 0-.898-.414 2.865 2.865 0 0 1-.812-.514 1.802 1.802 0 0 1-.477-.757c-.102-.305-.154-.677-.154-1.115 0-.552.07-1 .21-1.342.15-.343.393-.591.73-.743.345-.162.807-.243 1.387-.243ZM117.075 159.157c.551 0 .981.072 1.289.214.309.143.524.367.645.672.131.295.196.671.196 1.128v.529h-1.541v-.8c0-.314-.047-.533-.14-.657-.084-.133-.229-.2-.435-.2-.233 0-.392.062-.476.186a.865.865 0 0 0-.112.457v.528c0 .238.06.429.182.572.131.133.299.243.504.328.206.077.425.162.659.257.243.086.467.196.673.329.205.124.369.291.49.5.131.21.196.491.196.843v.428c0 .429-.07.791-.21 1.086-.131.295-.364.519-.7.672-.327.142-.781.214-1.36.214-.579 0-1.032-.072-1.359-.214a1.322 1.322 0 0 1-.673-.7c-.121-.315-.182-.71-.182-1.186v-.543h1.597v.914c0 .305.043.524.127.658.084.123.242.185.476.185.205 0 .35-.057.434-.171.094-.124.141-.305.141-.543v-.543c0-.228-.042-.41-.127-.543a.918.918 0 0 0-.392-.328 8.062 8.062 0 0 0-.673-.315 4.734 4.734 0 0 1-.7-.357 1.662 1.662 0 0 1-.533-.529c-.13-.219-.196-.499-.196-.842v-.415c0-.59.159-1.038.477-1.342.317-.315.892-.472 1.723-.472ZM107.804 159.272h1.317v.957h-1.317v4.3c0 .2.037.381.112.543.075.152.243.228.504.228.121 0 .262-.005.42-.014a4.28 4.28 0 0 1 .281-.029v.986c-.028 0-.159.024-.393.071a3.551 3.551 0 0 1-.742.072 3.7 3.7 0 0 1-.645-.057 1.612 1.612 0 0 1-.574-.214 1.246 1.246 0 0 1-.407-.472c-.103-.21-.154-.486-.154-.829v-4.585h-.659v-.815l.799-.142.224-1.3h1.234v1.3ZM49.812 159.071h-2.116v2.258h1.793v1.3h-1.793v2.571h2.116v1.143H46V157.9h3.812v1.171ZM52.208 166.343H50.61v-9.028h1.598v9.028ZM71.94 159.143c.597 0 1 .148 1.205.443.215.295.322.743.322 1.343v5.414H71.87v-5.3c0-.276-.041-.467-.126-.572-.084-.114-.22-.171-.406-.171a.715.715 0 0 0-.42.128.546.546 0 0 0-.21.329v5.586h-1.598V161c0-.248-.042-.424-.126-.529-.084-.114-.225-.171-.42-.171a.643.643 0 0 0-.393.114.743.743 0 0 0-.224.258v5.671h-1.598v-7.071h1.36l.14.842c.093-.285.257-.519.49-.7.243-.181.523-.271.84-.271.524 0 .898.114 1.122.343.15.152.255.351.317.595.083-.208.207-.392.37-.552.261-.258.579-.386.953-.386ZM76.02 166.343h-1.598v-7.071h1.598v7.071ZM79.894 159.129c.448 0 .785.08 1.009.242.224.153.374.372.448.657.085.277.127.605.127.986v5.329H79.88v-5.229c0-.114-.005-.219-.014-.314a.614.614 0 0 0-.084-.271.367.367 0 0 0-.168-.172c-.075-.047-.187-.071-.337-.071a.593.593 0 0 0-.294.071.532.532 0 0 0-.196.143 1.31 1.31 0 0 0-.112.157v5.686h-1.598v-7.071h1.36l.14.828c.084-.286.248-.519.49-.7.253-.181.528-.271.827-.271ZM97.013 166.343h-1.598v-9.028h1.598v9.028ZM98.639 162.272l1.457 4.071h-1.724l-1.261-4.1 1.415-2.971h1.584l-1.471 3ZM121.576 160.028c.112-.285.28-.504.504-.657.224-.152.495-.228.813-.228.448 0 .784.076 1.009.228.224.153.373.372.448.657.084.277.126.605.126.986v5.329h-1.597v-5.229a3.18 3.18 0 0 0-.014-.3.615.615 0 0 0-.084-.257.42.42 0 0 0-.182-.2c-.075-.047-.187-.071-.337-.071a.784.784 0 0 0-.322.057.48.48 0 0 0-.266.257v5.743h-1.598v-9h1.5v2.685ZM75.221 157c.206 0 .383.071.533.214a.684.684 0 0 1 .238.529c0 .2-.08.376-.238.528a.744.744 0 0 1-.533.215.745.745 0 0 1-.532-.215.73.73 0 0 1-.225-.528c0-.21.075-.386.225-.529a.744.744 0 0 1 .532-.214Z"/><path fill="#59564F" fill-rule="evenodd" d="m48.39 146.999-.289.001c-7.611 0-13.28-1.582-14.395-1.894-6.531-1.835-10.287-5.25-11.018-5.913-.725-.675-4.435-4.12-6.454-10.36-2.018-6.242-.993-13.517-.828-14.683 1.161-8.237 4.031-13.153 4.64-14.193 3.52-5.955 8.032-9.168 8.905-9.788.886-.632 5.433-3.875 12.483-5.711 1.197-.31 7.092-1.835 15.396-1.835 5.104 0 8.377.401 9.1.49 4.04.489 6.653 1.091 7.223 1.222 3.185.736 5.13 1.503 5.56 1.673l4.295 1.754-2.645 18.761H67.345c-1.792-2.935-3.886-4.084-4.322-4.323-2.486-1.387-4.897-1.387-5.34-1.387-.395 0-2.422 0-4.84.898-.386.145-2.377.897-4.392 2.61-.334.284-2.015 1.713-3.446 4.2-.242.414-1.427 2.449-1.875 5.629-.087.617-.74 5.247-.145 7.777.595 2.527 1.916 3.886 2.182 4.16.267.268 1.63 1.631 4.16 2.406l3.009.609 4.73.129c.706-.025 4.55-.164 8.8-.679 17.626-2.969 21.723-19.244 23.785-23.589l.413-.968c2.021-4.526 4.528-7.455 5.026-8.035l.012-.015c.88-1.084 5.457-6.714 14.712-9.943l.548-.198c.743-.265 4.558-1.632 9.596-2.406.828-.126 5.083-.775 10.447-.775h.042c5.34.003 9.38.646 10.186.775 4.866.775 8.273 2.133 8.96 2.406 4.096 1.632 6.726 3.745 7.243 4.16.505.4 3.191 2.529 5.204 6.037 1.868 3.253 2.513 7.37 2.617 8.035.128.799.719 4.517-.027 10.114-1.189 8.93-4.39 14.038-5.075 15.131-3.913 6.282-8.807 9.63-9.754 10.278-.936.641-5.839 3.997-13.131 5.711-1.202.275-7.541 1.73-15.34 1.73-.811 0-4.807 0-10.113-.67-4.802-.612-8.215-2.008-8.891-2.284-4.047-1.672-6.711-3.859-7.226-4.283l-2.522-2.472c-12.498 7.259-30.883 8.877-33.674 9.123-.836.076-6.152.558-10.474.585h-.04Zm74.618-45.044c-1.953.653-3.125 1.569-3.362 1.754-1.366 1.102-2.073 2.263-2.21 2.488l-1.391 2.814-.737 2.774-.377 2.365-.29 2.366-.051 2.814.592 2.855c.07.225.448 1.427 1.498 2.57.188.188 1.099 1.1 2.861 1.794.344.132 1.805.693 4.574.693 2.768 0 4.367-.566 4.725-.693 2-.693 3.171-1.607 3.412-1.794 1.414-1.143 2.126-2.337 2.265-2.57a14.738 14.738 0 0 0 1.397-2.855l.743-2.814.42-2.366.247-2.365.045-2.774c-.017-.229-.102-1.424-.599-2.814a6.384 6.384 0 0 0-1.552-2.488c-.19-.19-1.101-1.101-2.911-1.754-.339-.133-1.762-.693-4.53-.693-2.769 0-4.407.567-4.769.693ZM60.841 65.86c11.114 0 17.391-3.746 18.668-5.673h7.422l-2.564 18.19H24.94l2.564-18.19 5.837-1.047 3.639-25.818-5.541-1.048L34.014 14h59.428l-2.564 18.19h-7.156c-.982-1.616-7.277-5.672-17.335-5.672L64.27 41.536l13.718-2.724-2.091 14.837-12.95-2.724c-.703 4.978-1.405 9.957-2.106 14.935Zm68.212-3.227c1.956.027 18.599.25 23.692-5.714h7.484l-3.024 21.458H88.857l2.565-18.19 5.837-1.047c1.213-8.606 2.425-17.213 3.639-25.818l-5.53-1.132L97.932 14H141.6l-2.564 18.19-5.85 1.132-4.132 29.311Z" clip-rule="evenodd"/></g><defs><clipPath id="a"><path fill="#fff" d="M0 0h180v180H0z"/></clipPath></defs></svg>