<svg xmlns="http://www.w3.org/2000/svg" width="192" height="192" fill="none"><g clip-path="url(#a)"><path fill="#FBFAF8" d="M168 0H24C10.745 0 0 10.745 0 24v144c0 13.255 10.745 24 24 24h144c13.255 0 24-10.745 24-24V24c0-13.255-10.745-24-24-24Z"/><path fill="#59564F" fill-rule="evenodd" d="M142.31 170.157c.349 0 .648.057.897.172.249.105.444.281.583.528.14.238.21.567.21.986v3.429c0 .523-.06.947-.18 1.271-.119.314-.304.543-.553.686-.249.133-.569.2-.957.2-.349 0-.629-.058-.838-.172a1.417 1.417 0 0 1-.449-.414V179h-1.705v-8.728h1.69v.557c.1-.162.24-.315.419-.458.18-.142.474-.214.883-.214Zm-.644 1.014a.728.728 0 0 0-.344.072.476.476 0 0 0-.194.171.793.793 0 0 0-.09.229 2 2 0 0 0-.015.228v3.843c0 .162.015.305.045.429a.55.55 0 0 0 .195.285c.089.058.224.086.403.086a.82.82 0 0 0 .344-.057.47.47 0 0 0 .18-.185.573.573 0 0 0 .09-.258c.01-.104.015-.219.015-.342v-3.658c0-.123-.005-.238-.015-.342a.59.59 0 0 0-.09-.272.383.383 0 0 0-.18-.171.817.817 0 0 0-.344-.058Z" clip-rule="evenodd"/><path fill="#59564F" d="M61.721 168.771c.5.001.928.058 1.287.172.369.114.653.309.852.586.2.276.3.662.3 1.157v1.743h-1.735v-1.815c0-.228-.03-.4-.09-.514a.444.444 0 0 0-.255-.243 1.01 1.01 0 0 0-.358-.057c-.14 0-.265.019-.374.057a.445.445 0 0 0-.255.243c-.06.114-.09.286-.09.514v5.115c0 .219.03.39.09.514.06.114.145.195.255.243.11.038.234.057.373.057.14 0 .26-.019.36-.057a.517.517 0 0 0 .254-.243c.06-.124.09-.295.09-.514v-1.672h1.735v1.043c0 .695-.1 1.219-.3 1.572-.199.342-.483.566-.852.671-.36.114-.793.172-1.302.172a4.52 4.52 0 0 1-1.301-.172 1.52 1.52 0 0 1-.883-.671c-.21-.353-.314-.872-.314-1.558v-4.428c0-.505.105-.895.314-1.172.22-.276.52-.466.898-.571a4.52 4.52 0 0 1 1.301-.172Z"/><path fill="#59564F" fill-rule="evenodd" d="M90.098 170.143c.788 0 1.372.148 1.75.443.39.286.584.795.584 1.528v3c0 .657-.09 1.153-.27 1.486-.169.333-.428.562-.777.686-.35.114-.778.171-1.287.171-.498 0-.927-.057-1.286-.171a1.353 1.353 0 0 1-.793-.672c-.18-.342-.269-.843-.269-1.5v-3c0-.733.194-1.242.583-1.528.39-.295.977-.443 1.765-.443Zm0 .971c-.22 0-.383.062-.493.186-.1.124-.15.338-.15.643v3.714c0 .315.05.534.15.657.11.115.274.172.493.172.22 0 .38-.057.479-.172.1-.123.15-.342.15-.657v-3.714c0-.295-.05-.505-.15-.629-.09-.133-.25-.2-.479-.2ZM119.299 170.143c.778 0 1.361.128 1.75.386.389.257.584.733.584 1.428v1.929h-2.977v1.928c0 .286.045.486.135.6.099.114.274.172.523.172.229 0 .384-.053.464-.158.09-.114.135-.319.135-.614v-1.128h1.72v.443c0 .666-.09 1.166-.27 1.5a1.349 1.349 0 0 1-.792.671c-.339.105-.753.157-1.242.157-.518 0-.957-.052-1.316-.157a1.36 1.36 0 0 1-.793-.657c-.18-.333-.269-.833-.269-1.5v-3.186c0-.695.194-1.171.583-1.428.389-.258.977-.386 1.765-.386Zm0 .971c-.239 0-.409.058-.508.172-.09.114-.135.309-.135.585v1.272h1.257v-1.272c0-.276-.045-.471-.135-.585-.08-.114-.24-.172-.479-.172ZM135.996 170.143c.787 0 1.371.148 1.75.443.389.286.583.795.583 1.528v3c0 .657-.089 1.153-.269 1.486a1.352 1.352 0 0 1-.778.686c-.349.114-.778.171-1.286.171-.499 0-.928-.057-1.287-.171a1.35 1.35 0 0 1-.792-.672c-.18-.342-.27-.843-.27-1.5v-3c.001-.733.195-1.242.584-1.528.389-.295.977-.443 1.765-.443Zm0 .971c-.22 0-.384.062-.494.186-.099.124-.149.338-.149.643v3.714c0 .315.05.534.149.657.11.115.274.172.494.172.219 0 .379-.057.478-.172.1-.123.15-.342.15-.657v-3.714c0-.295-.05-.505-.15-.629-.089-.133-.249-.2-.478-.2ZM67.352 170.129c.629 0 1.113.057 1.452.171.339.105.573.276.703.514.13.229.194.543.194.943v5.586h-1.705v-.786c-.08.276-.264.495-.554.657-.279.162-.588.243-.927.243-.26 0-.504-.033-.733-.1a1.047 1.047 0 0 1-.553-.414c-.14-.219-.21-.538-.21-.957v-.943c0-.448.135-.81.404-1.086.28-.286.713-.529 1.301-.729.31-.123.554-.233.733-.328.18-.095.31-.21.39-.343.079-.143.119-.333.119-.571v-.386c0-.152-.025-.267-.075-.343a.428.428 0 0 0-.224-.186.803.803 0 0 0-.315-.057c-.259 0-.428.086-.508.258-.08.161-.12.437-.12.828v.6h-1.54v-.757c0-.352.05-.662.15-.929.109-.276.318-.49.627-.643.31-.162.773-.242 1.391-.242Zm.614 3.328a.788.788 0 0 1-.3.257 4.56 4.56 0 0 0-.418.229 1.68 1.68 0 0 0-.434.386c-.1.123-.15.3-.15.528v.729c0 .2.025.362.075.485.05.115.12.196.21.243.09.048.19.072.299.072.27 0 .454-.096.553-.286.11-.2.165-.476.165-.828v-1.815ZM109.598 170.129c.628 0 1.112.057 1.451.171.339.105.574.276.703.514.13.229.195.543.195.943v5.586h-1.705v-.786c-.08.276-.265.495-.554.657a1.813 1.813 0 0 1-.927.243c-.26 0-.504-.033-.733-.1a1.047 1.047 0 0 1-.554-.414c-.14-.219-.209-.538-.209-.957v-.943c0-.448.134-.81.404-1.086.279-.286.713-.529 1.301-.729.309-.123.553-.233.733-.328a.967.967 0 0 0 .389-.343c.08-.143.12-.333.12-.571v-.386c0-.152-.025-.267-.075-.343a.43.43 0 0 0-.225-.186.797.797 0 0 0-.314-.057c-.259 0-.429.086-.508.258-.08.161-.12.437-.12.828v.6h-1.541v-.757c0-.352.05-.662.15-.929.11-.276.319-.49.628-.643.309-.162.773-.242 1.391-.242Zm.614 3.328a.789.789 0 0 1-.3.257 4.546 4.546 0 0 0-.418.229c-.19.124-.335.252-.434.386-.1.123-.15.3-.15.528v.729c0 .2.025.362.075.485.05.115.119.196.209.243.09.048.19.072.3.072.269 0 .453-.096.553-.286.11-.2.165-.476.165-.828v-1.815Z" clip-rule="evenodd"/><path fill="#59564F" d="M98.267 168.886c.798 0 1.406.166 1.825.5.429.323.643.814.643 1.471v1.014H99v-.514c0-.428-.055-.728-.165-.9-.1-.171-.284-.257-.553-.257-.26 0-.444.076-.553.229-.11.152-.165.4-.165.742 0 .315.065.562.195.743.14.172.314.305.523.4.21.086.434.172.673.257.439.162.798.329 1.077.501.279.161.484.39.614.685.129.286.194.7.194 1.243 0 .609-.11 1.095-.329 1.457a1.755 1.755 0 0 1-.913.757c-.389.153-.847.229-1.376.229-.528 0-.982-.072-1.36-.214a1.622 1.622 0 0 1-.854-.758c-.199-.361-.299-.871-.299-1.528v-.5h1.81v.643c0 .352.03.624.09.814.06.181.145.31.254.386.11.066.24.1.39.1.228 0 .408-.077.537-.229.14-.162.21-.471.21-.928 0-.353-.06-.615-.18-.786-.11-.181-.289-.324-.538-.429-.25-.114-.569-.252-.957-.414a3.091 3.091 0 0 1-.868-.514c-.23-.2-.399-.453-.508-.757-.11-.305-.165-.677-.165-1.115 0-.552.075-1 .224-1.342a1.45 1.45 0 0 1 .778-.743c.37-.162.863-.243 1.481-.243ZM124.867 170.157c.588 0 1.047.072 1.376.214.329.143.559.367.688.672.14.295.209.671.209 1.128v.529h-1.645v-.8c0-.314-.05-.533-.149-.657-.09-.133-.245-.2-.464-.2-.25 0-.419.062-.509.186a.822.822 0 0 0-.119.457v.528c0 .238.064.429.194.572.14.133.319.243.539.328.219.077.453.162.703.257.259.086.498.196.718.329.219.124.394.291.523.5.14.21.209.491.209.843v.428c0 .429-.074.791-.224 1.086-.139.295-.389.519-.748.672-.349.142-.833.214-1.451.214-.618 0-1.102-.072-1.451-.214a1.366 1.366 0 0 1-.718-.7c-.129-.315-.194-.71-.194-1.186v-.543h1.705v.914c0 .305.045.524.135.658.089.123.259.185.508.185.219 0 .374-.057.464-.171.1-.124.15-.305.15-.543v-.543c0-.228-.045-.41-.135-.543a.97.97 0 0 0-.419-.328 8.92 8.92 0 0 0-.718-.315 5.175 5.175 0 0 1-.748-.357 1.721 1.721 0 0 1-.568-.529c-.14-.219-.21-.499-.21-.842v-.415c0-.59.17-1.038.509-1.342.339-.315.952-.472 1.84-.472ZM114.97 170.272h1.406v.957h-1.406v4.3c0 .2.04.381.12.543.08.152.259.228.538.228.13 0 .279-.005.449-.014.169-.019.269-.029.299-.029v.986c-.03 0-.17.024-.419.071a4.042 4.042 0 0 1-.793.072c-.229 0-.458-.019-.688-.057a1.804 1.804 0 0 1-.613-.214 1.285 1.285 0 0 1-.434-.472c-.109-.21-.164-.486-.164-.829v-4.585h-.703v-.815l.852-.142.24-1.3h1.316v1.3ZM53.069 170.071h-2.26v2.258h1.916v1.3H50.81v2.571h2.259v1.143H49V168.9h4.069v1.171ZM55.626 177.343h-1.705v-9.028h1.705v9.028ZM76.688 170.143c.638 0 1.067.148 1.287.443.23.295.344.743.344 1.343v5.414h-1.706v-5.3c0-.276-.044-.467-.134-.572-.09-.114-.234-.171-.434-.171a.8.8 0 0 0-.449.128.544.544 0 0 0-.224.329v5.586h-1.705V172c0-.248-.045-.424-.135-.529-.09-.114-.24-.171-.449-.171a.72.72 0 0 0-.658.372v5.671H70.72v-7.071h1.45l.15.842c.1-.285.275-.519.524-.7.26-.181.559-.271.898-.271.558 0 .957.114 1.196.343.16.152.272.351.338.595.09-.208.221-.392.395-.552.28-.258.618-.386 1.017-.386ZM81.044 177.343h-1.706v-7.071h1.706v7.071ZM85.179 170.129c.479 0 .838.08 1.077.242.24.153.399.372.479.657.09.277.135.605.135.986v5.329h-1.706v-5.229c0-.114-.005-.219-.015-.314a.586.586 0 0 0-.09-.271.38.38 0 0 0-.18-.172c-.079-.047-.199-.071-.358-.071a.667.667 0 0 0-.314.071.567.567 0 0 0-.21.143c-.05.057-.09.11-.12.157v5.686h-1.705v-7.071h1.451l.15.828a1.32 1.32 0 0 1 .524-.7c.269-.181.563-.271.882-.271ZM103.452 177.343h-1.705v-9.028h1.705v9.028ZM105.187 173.272l1.556 4.071h-1.84l-1.346-4.1 1.51-2.971h1.691l-1.571 3ZM129.671 171.028c.119-.285.299-.504.538-.657.239-.152.528-.228.868-.228.478 0 .837.076 1.076.228.24.153.399.372.479.657.09.277.135.605.135.986v5.329h-1.705v-5.229c0-.105-.005-.205-.015-.3a.57.57 0 0 0-.09-.257.429.429 0 0 0-.195-.2c-.079-.047-.199-.071-.359-.071a.892.892 0 0 0-.344.057.522.522 0 0 0-.284.257v5.743h-1.705v-9h1.601v2.685ZM80.191 168c.22 0 .409.071.568.214.17.143.255.319.255.529 0 .2-.085.376-.255.528a.823.823 0 0 1-.568.215.824.824 0 0 1-.568-.215.709.709 0 0 1-.24-.528c0-.21.08-.386.24-.529a.823.823 0 0 1 .568-.214Z"/><path fill="#59564F" fill-rule="evenodd" d="m51.393 156.999-.306.001c-8.068 0-14.077-1.689-15.259-2.022-6.923-1.959-10.904-5.605-11.678-6.313-.77-.721-4.702-4.399-6.842-11.061-2.139-6.665-1.052-14.432-.877-15.677 1.23-8.794 4.272-14.043 4.917-15.154 3.733-6.358 8.514-9.787 9.44-10.45.939-.674 5.76-4.137 13.232-6.097 1.269-.33 7.518-1.96 16.32-1.96 5.41 0 8.88.429 9.647.523 4.282.523 7.051 1.166 7.656 1.306 3.376.785 5.436 1.604 5.893 1.786l4.553 1.873-2.804 20.03h-13.8c-1.898-3.134-4.119-4.361-4.58-4.616-2.636-1.48-5.192-1.48-5.661-1.48-.42 0-2.568 0-5.131.958-.409.156-2.52.958-4.655 2.787-.354.303-2.136 1.829-3.653 4.485-.256.442-1.512 2.614-1.987 6.009-.093.659-.784 5.602-.153 8.303.63 2.699 2.03 4.149 2.312 4.442.283.286 1.727 1.741 4.409 2.569l3.19.65 5.014.138c.748-.027 4.823-.175 9.327-.726 18.685-3.169 23.028-20.545 25.213-25.185l.438-1.033c2.142-4.833 4.8-7.959 5.327-8.579l.013-.016c.934-1.157 5.785-7.168 15.595-10.616l.581-.211c.787-.283 4.831-1.742 10.172-2.57.877-.134 5.388-.826 11.073-.826h.045c5.66.003 9.942.69 10.797.827 5.158.827 8.77 2.277 9.497 2.569 4.342 1.742 7.13 3.999 7.678 4.442.535.427 3.382 2.7 5.517 6.445 1.979 3.473 2.663 7.868 2.773 8.578.136.854.762 4.823-.028 10.799-1.261 9.535-4.654 14.988-5.38 16.155-4.148 6.707-9.335 10.282-10.339 10.974-.993.684-6.189 4.267-13.919 6.097-1.274.294-7.993 1.847-16.261 1.847-.859 0-5.094 0-10.719-.715-5.09-.654-8.708-2.144-9.425-2.439-4.289-1.785-7.114-4.12-7.659-4.573l-2.673-2.639c-13.248 7.75-32.737 9.478-35.695 9.741-.886.08-6.52.595-11.102.624h-.043Zm79.095-48.092c-2.069.697-3.312 1.675-3.563 1.872-1.448 1.177-2.198 2.417-2.343 2.657l-1.474 3.004-.782 2.962-.399 2.525-.308 2.526-.053 3.004.627 3.049c.074.24.474 1.523 1.588 2.743.199.202 1.164 1.175 3.032 1.916.365.141 1.914.74 4.848.74 2.935 0 4.63-.604 5.01-.74 2.119-.74 3.36-1.715 3.616-1.916 1.499-1.219 2.254-2.495 2.401-2.743.948-1.528 1.392-2.794 1.481-3.049l.787-3.004.445-2.526.262-2.525.048-2.962a11.694 11.694 0 0 0-.634-3.004c-.077-.236-.481-1.482-1.646-2.657-.201-.202-1.167-1.175-3.086-1.872-.359-.143-1.868-.74-4.801-.74-2.935 0-4.671.606-5.056.74ZM64.591 70.369c11.78 0 18.435-4 19.788-6.056h7.868l-2.718 19.42H26.536l2.718-19.42 6.187-1.119L39.3 35.63l-5.874-1.12L36.155 15H99.15L96.43 34.422h-7.585c-1.041-1.726-7.714-6.057-18.375-6.057L68.226 44.4l14.541-2.908-2.217 15.84-13.727-2.909-2.232 15.946Zm72.305-3.445c2.074.028 19.715.267 25.113-6.101h7.934l-3.206 22.91H94.289l2.718-19.42 6.187-1.119 3.858-27.564-5.862-1.21L103.908 15h46.287l-2.718 19.42-6.201 1.21-4.38 31.294Z" clip-rule="evenodd"/></g><defs><clipPath id="a"><path fill="#fff" d="M0 0h192v192H0z"/></clipPath></defs></svg>