<svg xmlns="http://www.w3.org/2000/svg" width="512" height="512" fill="none"><g clip-path="url(#a)"><path fill="#FBFAF8" d="M448 0H64C28.654 0 0 28.654 0 64v384c0 35.346 28.654 64 64 64h384c35.346 0 64-28.654 64-64V64c0-35.346-28.654-64-64-64Z"/><path fill="#59564F" fill-rule="evenodd" d="M379.242 452.88c.933 0 1.733.16 2.4.48.666.294 1.186.787 1.559 1.48.374.666.561 1.586.561 2.76v9.6c0 1.467-.16 2.653-.48 3.56-.32.88-.813 1.52-1.48 1.92-.667.373-1.52.56-2.56.56-.934 0-1.681-.16-2.241-.48-.533-.347-.932-.734-1.199-1.16v6.04h-4.56V453.2h4.52v1.56a4.97 4.97 0 0 1 1.12-1.281c.48-.399 1.267-.599 2.36-.599Zm-1.72 2.84c-.373 0-.68.067-.92.2a1.294 1.294 0 0 0-.521.479 2.298 2.298 0 0 0-.239.641c-.027.24-.04.453-.04.64v10.759c0 .454.04.854.12 1.201.107.346.28.613.52.799.24.16.6.241 1.08.241.4 0 .706-.054.92-.16.213-.134.374-.307.48-.52a1.64 1.64 0 0 0 .239-.72c.027-.293.04-.613.04-.96v-10.24c0-.347-.013-.667-.04-.96a1.703 1.703 0 0 0-.239-.76 1.048 1.048 0 0 0-.48-.48c-.214-.107-.52-.16-.92-.16Z" clip-rule="evenodd"/><path fill="#59564F" d="M163.742 449c1.333 0 2.479.16 3.439.48.987.32 1.747.867 2.28 1.64.534.773.8 1.854.8 3.24v4.88h-4.64v-5.08c0-.64-.08-1.12-.24-1.44-.16-.347-.386-.573-.68-.68-.266-.107-.586-.16-.959-.16-.374 0-.707.053-1 .16-.294.107-.521.333-.681.68-.16.32-.239.8-.239 1.44v14.32c0 .613.079 1.093.239 1.44.16.32.387.546.681.68.293.106.626.16 1 .16.373 0 .693-.054.959-.16.294-.134.52-.36.68-.68.16-.347.24-.826.24-1.44v-4.68h4.64v2.92c0 1.946-.266 3.413-.8 4.4-.533.96-1.293 1.587-2.28 1.88-.96.32-2.12.48-3.48.48-1.306 0-2.467-.16-3.48-.48-.987-.293-1.774-.92-2.36-1.88-.56-.987-.84-2.44-.84-4.36v-12.4c0-1.413.28-2.507.84-3.28.586-.773 1.387-1.306 2.4-1.6 1.013-.32 2.174-.48 3.481-.48Z"/><path fill="#59564F" fill-rule="evenodd" d="M239.623 452.84c2.107 0 3.668.413 4.681 1.24 1.04.8 1.56 2.227 1.56 4.279v8.401c0 1.84-.24 3.227-.72 4.16-.453.933-1.147 1.573-2.08 1.92-.934.32-2.081.48-3.441.48-1.333 0-2.479-.16-3.439-.48-.933-.32-1.64-.947-2.12-1.88-.48-.96-.72-2.36-.72-4.2v-8.401c0-2.053.52-3.479 1.56-4.279 1.04-.827 2.613-1.24 4.719-1.24Zm0 2.72c-.586 0-1.026.174-1.319.52-.267.347-.4.947-.4 1.8v10.4c0 .88.133 1.494.4 1.84.293.32.733.48 1.319.48.587 0 1.014-.16 1.281-.48.266-.346.4-.96.4-1.84v-10.4c0-.827-.134-1.413-.4-1.76-.24-.373-.667-.56-1.281-.56ZM317.709 452.84c2.08 0 3.641.36 4.681 1.08 1.04.72 1.56 2.053 1.56 4v5.4h-7.96v5.4c0 .8.12 1.359.36 1.679.267.32.733.481 1.399.481.614 0 1.027-.147 1.241-.441.239-.32.36-.893.36-1.719v-3.16h4.6v1.24c0 1.866-.24 3.267-.72 4.2-.48.933-1.187 1.56-2.12 1.88-.907.293-2.014.44-3.321.44-1.386 0-2.559-.147-3.519-.44-.933-.32-1.64-.933-2.12-1.84-.48-.933-.72-2.333-.72-4.2v-8.92c0-1.947.52-3.28 1.56-4 1.04-.72 2.613-1.08 4.719-1.08Zm0 2.72c-.64 0-1.092.16-1.359.48-.24.32-.36.866-.36 1.64v3.56h3.36v-3.56c0-.773-.121-1.32-.36-1.64-.214-.32-.641-.48-1.281-.48ZM362.358 452.84c2.106 0 3.667.413 4.68 1.24 1.04.8 1.56 2.227 1.56 4.279v8.401c0 1.84-.24 3.227-.72 4.16-.453.933-1.147 1.573-2.08 1.92-.933.32-2.08.48-3.44.48-1.333 0-2.48-.16-3.44-.48-.933-.32-1.64-.947-2.12-1.88-.48-.96-.72-2.36-.72-4.2v-8.401c.001-2.053.52-3.479 1.56-4.279 1.04-.827 2.613-1.24 4.72-1.24Zm0 2.72c-.587 0-1.026.174-1.32.52-.266.347-.4.947-.4 1.8v10.4c0 .88.134 1.494.4 1.84.294.32.733.48 1.32.48.586 0 1.013-.16 1.28-.48.267-.346.4-.96.4-1.84v-10.4c0-.827-.133-1.413-.4-1.76-.24-.373-.667-.56-1.28-.56ZM178.799 452.8c1.68 0 2.974.16 3.881.48.906.294 1.533.773 1.88 1.44.346.64.519 1.52.519 2.639V473h-4.559v-2.2c-.213.773-.707 1.386-1.481 1.84a4.685 4.685 0 0 1-2.479.679 6.686 6.686 0 0 1-1.96-.279c-.587-.187-1.081-.573-1.481-1.16-.373-.613-.559-1.507-.559-2.68v-2.64c0-1.254.36-2.267 1.08-3.04.747-.8 1.906-1.481 3.479-2.041.827-.346 1.48-.653 1.96-.919.48-.267.827-.587 1.04-.96.214-.4.321-.933.321-1.6v-1.08c0-.427-.067-.747-.2-.96a1.157 1.157 0 0 0-.6-.521 2.069 2.069 0 0 0-.841-.159c-.693 0-1.146.24-1.359.72-.214.453-.321 1.226-.321 2.319V460h-4.12v-2.12c0-.987.134-1.853.401-2.6.293-.773.853-1.374 1.679-1.801.827-.453 2.067-.679 3.72-.679Zm1.641 9.32c-.16.267-.427.507-.8.72-.373.186-.747.4-1.12.639-.507.347-.894.707-1.16 1.081-.267.346-.401.84-.401 1.48v2.04c0 .56.067 1.013.2 1.359.134.32.321.548.561.681.24.133.507.199.8.199.72 0 1.213-.266 1.479-.799.294-.56.441-1.333.441-2.32v-5.08ZM291.768 452.8c1.68 0 2.974.16 3.881.48.906.294 1.533.773 1.88 1.44.346.64.519 1.52.519 2.639V473h-4.559v-2.2c-.214.773-.708 1.386-1.481 1.84a4.685 4.685 0 0 1-2.479.679 6.681 6.681 0 0 1-1.96-.279c-.587-.187-1.081-.573-1.481-1.16-.373-.613-.559-1.507-.559-2.68v-2.64c0-1.254.36-2.267 1.08-3.04.746-.8 1.906-1.481 3.479-2.041.827-.346 1.48-.653 1.96-.919.48-.267.827-.587 1.04-.96.213-.4.32-.933.321-1.6v-1.08c0-.427-.067-.747-.201-.96a1.155 1.155 0 0 0-.599-.521 2.069 2.069 0 0 0-.841-.159c-.693 0-1.146.24-1.359.72-.214.453-.321 1.226-.321 2.319V460h-4.12v-2.12c0-.987.134-1.853.4-2.6.294-.773.853-1.374 1.68-1.801.827-.453 2.067-.679 3.72-.679Zm1.641 9.32c-.16.267-.427.507-.8.72-.374.186-.747.4-1.12.639-.507.347-.894.707-1.161 1.081-.266.346-.4.84-.4 1.48v2.04c0 .56.067 1.013.2 1.359.134.32.32.548.56.681.24.133.507.199.801.199.719 0 1.212-.266 1.479-.799.293-.56.44-1.333.441-2.32v-5.08Z" clip-rule="evenodd"/><path fill="#59564F" d="M261.468 449.32c2.133 0 3.76.466 4.88 1.4 1.147.906 1.72 2.28 1.72 4.12v2.84h-4.64v-1.44c0-1.2-.147-2.04-.44-2.52-.267-.48-.76-.72-1.48-.72-.693 0-1.187.213-1.48.64-.294.426-.44 1.12-.44 2.08 0 .88.173 1.573.52 2.08.373.48.84.853 1.4 1.12.56.24 1.16.48 1.8.72 1.173.453 2.133.92 2.88 1.4a3.987 3.987 0 0 1 1.64 1.92c.347.8.52 1.96.52 3.479 0 1.707-.293 3.067-.88 4.081a4.761 4.761 0 0 1-2.44 2.12c-1.04.426-2.267.64-3.68.64-1.413 0-2.626-.2-3.64-.6-.986-.4-1.747-1.107-2.28-2.12-.533-1.014-.8-2.44-.8-4.28v-1.4h4.84v1.8c0 .986.08 1.747.24 2.28.16.507.387.867.68 1.08.293.187.64.28 1.04.28.613 0 1.093-.214 1.439-.64.374-.454.561-1.32.561-2.6 0-.987-.16-1.72-.48-2.2-.294-.507-.773-.907-1.44-1.2a79.38 79.38 0 0 0-2.56-1.16c-.933-.4-1.707-.88-2.32-1.44-.613-.56-1.067-1.267-1.36-2.12-.293-.853-.44-1.893-.44-3.12 0-1.547.2-2.8.6-3.76a3.968 3.968 0 0 1 2.08-2.08c.987-.453 2.307-.68 3.96-.68ZM332.598 452.88c1.573 0 2.8.2 3.68.599.88.4 1.494 1.028 1.84 1.881.374.827.56 1.88.56 3.16V460h-4.4v-2.24c0-.88-.133-1.493-.4-1.84-.24-.373-.653-.56-1.24-.56-.667 0-1.12.173-1.36.52-.214.347-.32.774-.32 1.28v1.48c0 .666.173 1.2.52 1.6.373.374.854.68 1.44.92.587.213 1.214.453 1.88.72.693.24 1.333.546 1.92.92a3.906 3.906 0 0 1 1.4 1.4c.374.587.56 1.373.56 2.36v1.2c0 1.2-.2 2.213-.6 3.04-.373.826-1.04 1.453-2 1.88-.933.4-2.227.6-3.88.6-1.654 0-2.947-.2-3.88-.6-.907-.427-1.547-1.08-1.92-1.96-.347-.88-.52-1.987-.52-3.321v-1.519h4.56v2.559c0 .854.12 1.468.36 1.841.24.347.693.52 1.36.52.586 0 1-.16 1.24-.48.266-.346.4-.854.4-1.52v-1.52c0-.64-.12-1.147-.36-1.52s-.614-.68-1.12-.92a23.538 23.538 0 0 0-1.92-.88 13.975 13.975 0 0 1-2-1 4.723 4.723 0 0 1-1.52-1.481c-.373-.613-.56-1.399-.56-2.359v-1.16c0-1.653.453-2.906 1.36-3.76.907-.88 2.547-1.32 4.92-1.32ZM306.133 453.2h3.76v2.68h-3.76v12.04c0 .56.107 1.067.32 1.52.214.427.694.64 1.44.64.347 0 .747-.013 1.2-.04.453-.053.72-.08.8-.08v2.76c-.08 0-.454.067-1.12.2-.64.133-1.347.2-2.12.2-.614 0-1.227-.053-1.84-.16a4.632 4.632 0 0 1-1.64-.6c-.48-.32-.867-.76-1.16-1.32-.293-.587-.44-1.36-.44-2.32v-12.84h-1.88v-2.28l2.28-.4.64-3.639h3.52v3.639ZM140.603 452.64h-6.04v6.32h5.12v3.64h-5.12v7.2h6.04v3.2h-10.88v-23.64h10.88v3.28ZM147.443 473h-4.561v-25.279h4.561V473ZM203.764 452.84c1.707 0 2.854.413 3.44 1.24.614.827.92 2.08.92 3.76V473h-4.56v-14.84c0-.773-.12-1.307-.36-1.6-.24-.32-.626-.48-1.16-.48-.453 0-.853.119-1.2.359-.32.24-.519.547-.6.92V473h-4.56v-14.96c0-.693-.119-1.187-.359-1.48-.24-.32-.641-.48-1.201-.48-.453 0-.826.106-1.12.319a2.096 2.096 0 0 0-.639.721V473h-4.561v-19.8h3.88l.4 2.36a3.99 3.99 0 0 1 1.401-1.96c.693-.507 1.493-.76 2.399-.76 1.493 0 2.56.32 3.2.96.426.426.727.982.905 1.668a4.473 4.473 0 0 1 1.055-1.548c.747-.72 1.653-1.08 2.72-1.08ZM215.411 473h-4.56v-19.8h4.56V473ZM226.469 452.8c1.28 0 2.24.226 2.88.679.64.427 1.067 1.041 1.28 1.84.24.774.361 1.694.361 2.761V473h-4.561v-14.641c0-.319-.013-.613-.04-.88a1.708 1.708 0 0 0-.24-.759 1.053 1.053 0 0 0-.48-.48c-.213-.133-.533-.2-.96-.2-.32 0-.6.067-.84.2-.24.107-.427.24-.56.4-.133.16-.239.307-.319.44V473h-4.561v-19.8h3.88l.4 2.32c.24-.8.707-1.454 1.401-1.96a4.01 4.01 0 0 1 2.359-.76ZM275.333 473h-4.56v-25.279h4.56V473ZM279.973 461.601l4.16 11.399h-4.92l-3.6-11.479 4.04-8.321h4.52l-4.2 8.401ZM345.444 455.319c.32-.799.799-1.413 1.439-1.84.64-.426 1.414-.639 2.32-.639 1.28 0 2.24.213 2.88.639.64.427 1.067 1.041 1.281 1.84.24.774.36 1.694.36 2.761V473h-4.561v-14.641c0-.293-.013-.573-.04-.839a1.64 1.64 0 0 0-.24-.72 1.182 1.182 0 0 0-.519-.56c-.214-.133-.534-.2-.96-.2-.374 0-.68.054-.92.16-.24.107-.414.226-.521.36a2.08 2.08 0 0 0-.239.36V473h-4.561v-25.2h4.281v7.519ZM213.131 446.84c.587 0 1.093.2 1.52.599.453.4.68.894.68 1.481 0 .56-.227 1.053-.68 1.479-.427.4-.933.601-1.52.601a2.146 2.146 0 0 1-1.52-.601c-.427-.426-.64-.919-.64-1.479 0-.587.213-1.081.64-1.481.426-.4.933-.599 1.52-.599Z"/><path fill="#59564F" fill-rule="evenodd" d="m138.382 417.998-.816.002c-21.514 0-37.539-4.485-40.69-5.368-18.462-5.201-29.078-14.882-31.143-16.762-2.052-1.913-12.539-11.677-18.245-29.365-5.704-17.695-2.806-38.315-2.34-41.62 3.282-23.349 11.394-37.283 13.113-40.233 9.954-16.881 22.705-25.986 25.174-27.745 2.503-1.791 15.358-10.984 35.284-16.188 3.385-.877 20.048-5.201 43.519-5.201 14.429 0 23.681 1.137 25.726 1.388 11.419 1.386 18.805 3.095 20.416 3.466 9.003 2.084 14.498 4.259 15.716 4.741l12.141 4.972-7.477 53.18h-36.799c-5.064-8.321-10.984-11.578-12.216-12.255-7.027-3.93-13.843-3.93-15.095-3.93-1.117 0-6.847 0-13.683 2.544-1.089.413-6.717 2.544-12.412 7.398-.945.806-5.696 4.857-9.741 11.907-.683 1.174-4.033 6.941-5.3 15.956-.247 1.748-2.091 14.871-.408 22.042 1.679 7.166 5.415 11.016 6.167 11.793.755.759 4.605 4.623 11.756 6.82l8.507 1.726 13.37.367c1.995-.072 12.863-.464 24.874-1.926 49.824-8.416 61.405-54.548 67.233-66.865l1.168-2.744c5.714-12.83 12.799-21.131 14.207-22.776l.034-.042c2.49-3.072 15.425-19.031 41.586-28.184l1.549-.562c2.099-.752 12.882-4.624 27.125-6.82 2.339-.357 14.368-2.196 29.529-2.196h.12c15.094.008 26.512 1.832 28.792 2.196 13.754 2.197 23.385 6.046 25.326 6.82 11.578 4.627 19.013 10.617 20.473 11.794 1.428 1.135 9.02 7.167 14.712 17.11 5.279 9.221 7.102 20.891 7.397 22.776.36 2.266 2.031 12.805-.076 28.671-3.362 25.313-12.411 39.792-14.348 42.89-11.06 17.805-24.893 27.296-27.57 29.133-2.647 1.818-16.504 11.33-37.118 16.187-3.395.782-21.314 4.905-43.361 4.905-2.291 0-13.586 0-28.586-1.898-13.572-1.735-23.221-5.693-25.131-6.476-11.439-4.739-18.971-10.939-20.426-12.14l-7.127-7.006c-35.329 20.575-87.298 25.161-95.187 25.86-2.361.213-17.388 1.58-29.606 1.658h-.113Zm210.92-127.682c-5.519 1.852-8.832 4.449-9.502 4.972-3.862 3.123-5.861 6.416-6.248 7.052l-3.932 7.977-2.083 7.863-1.066 6.705-.82 6.704-.142 7.977 1.672 8.094c.198.637 1.265 4.043 4.234 7.283.533.535 3.106 3.12 8.087 5.086.972.374 5.102 1.966 12.928 1.966 7.826 0 12.346-1.605 13.359-1.966 5.652-1.964 8.961-4.553 9.642-5.086 3.999-3.237 6.01-6.623 6.403-7.283 2.528-4.056 3.712-7.417 3.95-8.094l2.1-7.977 1.186-6.704.698-6.705.128-7.863c-.046-.649-.287-4.036-1.692-7.977-.205-.627-1.282-3.933-4.388-7.052-.536-.539-3.111-3.122-8.228-4.972-.958-.378-4.982-1.964-12.804-1.964-7.827 0-12.457 1.608-13.482 1.964ZM173.577 188.001c31.415 0 49.159-10.618 52.768-16.079h20.981l-7.248 51.56H72.096l7.248-51.56 16.5-2.969L106.13 95.77l-15.662-2.972C92.893 75.534 95.32 58.267 97.748 41H265.73a912644.18 912644.18 0 0 0-7.249 51.563h-20.228c-2.776-4.582-20.57-16.08-48.999-16.08-1.996 14.19-3.99 28.381-5.985 42.571 12.925-2.574 25.851-5.146 38.777-7.721l-5.911 42.057-36.607-7.724c-1.985 14.113-3.969 28.224-5.951 42.335Zm192.814-9.145c5.528.074 52.571.707 66.967-16.199h21.156l-8.549 60.825H252.77c2.416-17.185 4.833-34.372 7.248-51.56l16.5-2.969c3.43-24.395 6.857-48.79 10.287-73.183l-15.631-3.21L278.421 41h123.431c-2.415 17.188-4.831 34.374-7.248 51.56l-16.533 3.21c-3.893 27.694-7.788 55.389-11.68 83.086Z" clip-rule="evenodd"/></g><defs><clipPath id="a"><path fill="#fff" d="M0 0h512v512H0z"/></clipPath></defs></svg>